<svg width="915" height="345" viewBox="0 0 915 345" fill="none" xmlns="http://www.w3.org/2000/svg">
<path d="M778 198.233C778 278.867 712.634 344.233 632 344.233C551.366 344.233 486 278.867 486 198.233C486 117.6 551.366 52.2333 632 52.2333C712.634 52.2333 778 117.6 778 198.233Z" fill="white"/>
<path d="M804.691 0.936568C803.612 1.47602 802.263 3.09437 801.814 4.5329C800.105 9.29804 803.162 13.3439 808.377 13.3439C814.041 13.3439 816.469 5.34208 811.973 1.74574C809.366 -0.322148 807.658 -0.501965 804.691 0.936568Z" fill="black"/>
<path d="M903.319 3.45398C899.184 7.58976 902.33 14.6026 908.264 14.6026C910.692 14.6026 912.13 14.0632 913.299 12.5347C917.075 7.85949 914.198 1.65582 908.264 1.65582C906.286 1.65582 904.398 2.37508 903.319 3.45398Z" fill="black"/>
<path d="M707.319 47.5073C704.082 50.744 705.431 56.678 709.747 58.3862C712.893 59.555 716.67 58.0266 718.018 55.0596C719.457 51.9128 719.277 50.744 717.119 48.0468C714.781 45.0798 710.016 44.8101 707.319 47.5073Z" fill="black"/>
<path d="M822.042 58.3865C817.367 62.0727 820.244 69.9847 826.358 69.9847C829.415 69.9847 833.191 66.2984 833.191 63.2415C833.191 60.2746 829.505 56.4984 826.628 56.4984C825.459 56.4984 823.391 57.3076 822.042 58.3865Z" fill="black"/>
<path d="M853.96 69.6254C851.622 72.5924 851.532 75.4695 853.69 77.9869C857.646 82.842 865.558 80.1447 865.558 73.941C865.558 67.5575 857.826 64.6805 853.96 69.6254Z" fill="black"/>
<path d="M744.271 70.5237C743.192 71.8724 742.383 73.9402 742.383 75.1091C742.383 77.9861 746.159 81.6724 749.126 81.6724C752.273 81.6724 755.869 77.8962 755.869 74.5696C755.869 68.9054 747.777 66.0283 744.271 70.5237Z" fill="black"/>
<path d="M647.979 83.2012C645.013 84.2801 643.484 86.5278 643.484 89.8544C643.484 93.7205 645.912 96.0581 649.778 96.0581C653.644 96.0581 656.071 93.7205 656.071 89.8544C656.071 85.2691 651.846 81.7627 647.979 83.2012Z" fill="black"/>
<path d="M596.101 86.1685C589.358 88.8657 592.235 99.2951 599.428 98.5758C605.901 97.9464 607.7 89.4951 602.125 86.618C599.158 85.0896 598.889 85.0896 596.101 86.1685Z" fill="black"/>
<path d="M684.392 92.0128C683.134 93.1816 682.145 95.2495 682.145 96.5082C682.145 99.2055 685.741 103.251 688.168 103.251C689.068 103.341 690.596 104.6 691.585 106.218C694.102 110.264 699.047 110.714 701.835 107.207C705.251 102.892 703.453 97.6771 698.328 96.5082C696.8 96.1486 695.631 95.5193 695.631 95.0697C695.631 93.2715 691.135 89.7651 688.888 89.7651C687.629 89.7651 685.561 90.7541 684.392 92.0128Z" fill="black"/>
<path d="M796.956 105.229C794.529 107.117 793.72 110.624 794.978 113.681C797.766 120.334 807.116 118.266 807.116 111.073C807.116 107.657 806.487 106.578 803.789 105.139C801.272 103.881 798.845 103.881 796.956 105.229Z" fill="black"/>
<path d="M636.291 109.545C633.144 112.692 634.403 118.716 638.539 120.334C641.506 121.503 645.731 119.885 646.99 117.098C648.429 113.951 648.249 112.872 646.091 110.085C643.753 107.118 638.988 106.848 636.291 109.545Z" fill="black"/>
<path d="M540.089 124.11C533.256 126.717 523.456 136.607 519.5 144.789C515.724 152.701 513.117 163.31 513.117 170.413V176.167L517.882 175.897L522.557 175.628L522.827 171.582C523.276 163.04 522.737 163.49 533.346 163.49H542.787V176.077H552.676V122.132L548.9 122.222C546.743 122.222 542.787 123.031 540.089 124.11ZM542.787 144.16V153.6H534.695C530.289 153.6 526.603 153.42 526.603 153.15C526.603 151.172 531.998 142.721 535.594 139.125C542.247 132.472 542.787 132.921 542.787 144.16Z" fill="black"/>
<path d="M562.566 176.077H572.456V122.132H562.566V176.077Z" fill="black"/>
<path d="M581.447 176.077H585.044C587.471 176.077 588.91 175.628 589.179 174.729C589.629 173.56 590.078 173.65 592.506 174.908C596.642 177.156 604.374 176.886 609.049 174.459C621.456 167.985 620.647 144.879 607.88 139.574C603.924 137.956 596.911 137.956 593.675 139.664C592.326 140.384 590.977 141.013 590.798 141.013C590.618 141.013 590.438 136.787 590.438 131.573V122.132H581.447V176.077ZM602.576 147.666C606.262 149.195 608.42 153.061 608.42 158.185C608.42 161.152 607.88 162.411 605.363 164.929C601.946 168.345 598.44 168.884 594.124 166.637C590.888 165.018 590.438 163.76 590.438 156.837C590.438 150.004 592.506 147.486 598.799 146.497C599.159 146.497 600.867 146.947 602.576 147.666Z" fill="black"/>
<path d="M741.754 123.03C735.101 125.728 737.618 136.067 744.811 135.438C751.554 134.898 753.532 126.447 747.778 123.48C744.811 121.952 744.541 121.952 741.754 123.03Z" fill="black"/>
<path d="M788.146 129.414C786.707 129.954 785.179 131.482 784.549 133.101C783.56 135.438 783.65 136.248 784.909 138.405C786.168 140.653 786.168 141.282 785.089 143.44C783.201 147.037 783.381 148.835 785.988 151.352C788.775 154.229 792.641 154.319 795.248 151.532C797.496 149.104 797.856 144.429 795.878 142.811C794.709 141.822 794.709 141.462 795.878 139.844C799.834 134.18 794.529 127.077 788.146 129.414Z" fill="black"/>
<path d="M699.227 134.18C698.328 138.675 697.968 139.215 695.091 140.114C692.394 141.013 692.035 141.552 692.035 144.16C692.035 146.947 692.304 147.217 695.002 147.486L697.879 147.756L698.328 159.174C698.778 170.053 698.868 170.773 701.115 173.02C703.723 175.628 709.027 177.156 712.893 176.347C715.231 175.897 715.411 175.538 715.411 171.582C715.411 167.536 715.321 167.446 712.893 167.806C708.398 168.435 707.229 165.918 707.499 156.207L707.768 147.756L711.185 147.486C714.512 147.217 714.512 147.127 714.512 143.171V139.215H707.319V129.325H700.216L699.227 134.18Z" fill="black"/>
<path d="M633.504 140.383C623.525 145.688 620.558 161.152 627.93 169.783C631.706 174.279 636.741 176.437 643.934 176.437C647.44 176.437 651.756 175.987 653.644 175.268C656.971 174.189 656.971 174.099 656.971 169.244C656.971 166.547 656.791 164.389 656.611 164.389C656.341 164.389 654.633 165.288 652.835 166.367C650.317 167.805 647.89 168.345 644.114 168.435C639.259 168.435 638.629 168.165 636.202 165.468C631.526 160.253 632.066 159.893 645.732 159.893H657.87V142.991L653.194 140.653C646.901 137.506 639.169 137.416 633.504 140.383ZM646.451 146.497C649.328 147.306 649.778 147.756 649.778 150.003V152.701H641.686C634.134 152.701 633.594 152.611 634.404 151.082C635.842 148.295 639.438 145.778 642.136 145.598C642.675 145.508 644.563 145.958 646.451 146.497Z" fill="black"/>
<path d="M681.246 139.305C680.077 139.844 678.369 140.833 677.56 141.552C676.121 142.811 675.941 142.721 675.402 141.103C674.952 139.574 674.053 139.215 670.816 139.215H666.86V176.077H676.75V165.378C676.75 155.218 676.84 154.499 678.998 151.982C680.347 150.363 682.504 149.105 684.393 148.745C687.539 148.116 687.539 148.116 687.539 143.261C687.539 138.675 687.36 138.316 685.561 138.406C684.393 138.406 682.504 138.855 681.246 139.305Z" fill="black"/>
<path d="M723.502 159.893H745.08V151.801H723.502V159.893Z" fill="black"/>
<path d="M838.766 153.869C837.687 155.038 836.788 157.106 836.788 158.455C836.788 161.512 840.474 165.288 843.531 165.288C846.498 165.288 850.274 161.512 850.274 158.545C850.274 155.398 846.498 151.802 843.261 151.802C841.732 151.802 839.934 152.611 838.766 153.869Z" fill="black"/>
<path d="M32.8267 157.376C26.4432 162.411 5.31471 183.719 2.07801 188.484C-0.349512 191.991 -0.43942 192.53 0.729388 194.778C2.25783 197.745 24.2854 220.582 31.478 226.516C34.3551 228.943 37.5019 230.921 38.5808 230.921C39.6597 230.921 42.3569 229.393 44.6046 227.505C57.012 217.435 77.0615 196.037 77.0615 192.8C77.0615 190.103 71.0377 182.91 57.5514 169.694C46.6725 158.905 40.289 153.6 38.2211 153.6C37.9514 153.6 35.5239 155.308 32.8267 157.376ZM40.0193 171.761C42.0872 173.829 41.0982 176.796 36.1533 182.281C33.456 185.338 30.489 188.934 29.6799 190.193L28.1514 192.53L34.6248 198.554L41.1881 204.488L40.9184 210.782C40.5588 219.772 39.39 219.593 27.9716 208.264C17.1826 197.745 14.5753 194.149 15.3844 190.912C15.6542 189.743 20.0597 184.708 25.0046 179.673C32.0175 172.75 34.6248 170.683 36.5129 170.683C37.8615 170.683 39.39 171.132 40.0193 171.761Z" fill="black"/>
<path d="M91.1779 161.422C90.8182 161.691 90.5485 170.053 90.5485 179.853V197.655H96.8421V177.066L99.8091 176.257C101.338 175.807 103.495 175.717 104.484 176.077C106.103 176.706 106.282 177.695 106.552 187.225L106.822 197.655H113.026V187.765C113.026 172.301 111.227 169.783 101.248 170.952L96.8421 171.492V166.187C96.8421 160.882 96.8421 160.792 94.3246 160.792C92.8861 160.792 91.4476 161.062 91.1779 161.422Z" fill="black"/>
<path d="M232.602 170.683H227.568C223.072 170.683 222.263 170.952 219.476 173.74C216.509 176.706 216.419 177.066 216.419 183.809C216.419 192.62 218.217 196.127 223.522 197.745C227.028 198.824 235.48 198.284 237.817 196.846C238.626 196.306 238.896 191.991 238.716 178.684L238.447 161.242L235.569 160.973L232.602 160.703V170.683ZM231.164 175.717C232.333 176.167 232.602 177.875 232.602 184.708V193.16H229.096C223.881 193.16 222.713 191.541 222.713 184.169C222.713 178.774 222.982 177.785 224.691 176.617C226.848 175.088 228.826 174.818 231.164 175.717Z" fill="black"/>
<path d="M326.107 164.029C326.107 167.086 326.197 167.176 329.074 166.906C331.591 166.636 331.951 166.277 332.221 163.67C332.49 160.882 332.401 160.792 329.344 160.792C326.197 160.792 326.107 160.882 326.107 164.029Z" fill="black"/>
<path d="M172.095 165.917C171.735 166.186 171.466 167.445 171.466 168.614C171.466 170.232 171.016 170.682 169.218 170.682C167.6 170.682 166.97 171.131 166.97 172.48C166.97 173.649 167.779 174.458 169.218 174.818C171.466 175.357 171.466 175.447 171.466 185.157C171.466 193.878 171.645 195.137 173.354 196.845C175.961 199.452 182.614 199.003 182.974 196.216C183.154 194.687 182.614 194.148 180.546 193.788L177.759 193.159V175.177H180.456C182.704 175.177 183.154 174.818 183.154 172.929C183.154 171.041 182.704 170.682 180.456 170.682C178.029 170.682 177.759 170.412 177.759 167.985C177.759 165.647 177.399 165.287 175.242 165.287C173.803 165.287 172.365 165.557 172.095 165.917Z" fill="black"/>
<path d="M117.88 172.03C116.711 175.087 118.149 176.166 122.735 175.536C128.039 174.817 131.006 176.166 131.006 179.223C131.006 181.111 130.467 181.38 126.061 181.92C119.228 182.819 116.621 184.977 116.621 190.011C116.621 195.766 118.869 198.103 124.353 197.923C126.781 197.834 130.647 197.744 133.074 197.744L137.3 197.654V186.955C137.3 181.021 137.03 175.536 136.76 174.727C135.771 172.12 131.366 170.681 124.713 170.681C119.858 170.681 118.239 171.041 117.88 172.03ZM130.826 189.292C130.557 192.619 130.467 192.709 126.96 192.709C123.904 192.709 123.364 192.439 123.094 190.641C122.645 187.674 124.443 185.966 128.039 185.966C131.006 185.966 131.096 186.056 130.826 189.292Z" fill="black"/>
<path d="M141.796 180.571C141.796 187.225 142.246 191.54 143.145 193.608C145.033 198.283 150.517 199.902 155.552 197.294C156.901 196.575 157.98 196.305 157.98 196.845C157.98 197.294 159.418 197.654 161.126 197.654H164.273V170.682H157.98V181.021C157.98 192.26 157.53 193.159 152.225 193.159C148.899 193.159 148.09 190.731 148.09 180.212V170.682H141.796V180.571Z" fill="black"/>
<path d="M189.807 171.761C187.829 172.66 185.851 175.987 185.851 178.324C185.851 181.291 188.188 184.169 192.054 186.146C197.629 188.934 199.337 190.372 198.708 191.901C198.348 192.8 196.64 193.159 192.504 193.159C187.02 193.159 186.75 193.249 186.75 195.317C186.75 197.295 187.289 197.655 190.796 198.194C198.708 199.363 204.282 196.935 205.271 191.721C205.99 188.124 202.664 184.079 197.179 182.011C189.807 179.134 191.425 174.908 199.786 175.357C203.563 175.627 204.282 175.358 204.552 173.919C204.731 173.02 204.372 171.941 203.653 171.491C202.034 170.413 192.144 170.592 189.807 171.761Z" fill="black"/>
<path d="M245.908 173.289C243.211 175.626 242.942 176.436 242.672 182.28C242.222 190.102 242.672 192.259 245.729 195.226C248.426 197.924 253.91 199.092 260.024 198.193C263.71 197.564 264.07 197.294 264.07 195.047C264.07 192.619 264.07 192.619 258.675 192.979C252.652 193.428 248.786 191.72 248.786 188.663C248.786 187.045 249.415 186.865 256.787 186.865C265.958 186.865 266.228 186.595 265.059 179.942C263.89 173.648 260.204 170.681 253.73 170.681C249.595 170.681 248.336 171.131 245.908 173.289ZM257.597 177.155C258.226 177.784 258.675 179.133 258.675 180.302C258.675 182.19 258.316 182.37 253.73 182.37C249.415 182.37 248.786 182.1 248.786 180.661C248.786 176.885 254.899 174.458 257.597 177.155Z" fill="black"/>
<path d="M279.894 172.571C278.006 174.009 277.556 175.178 277.556 178.235C277.556 182.64 278.545 183.719 285.468 187.226C288.885 188.934 290.144 190.103 289.964 191.182C289.694 192.44 288.435 192.8 283.58 192.98C277.826 193.25 277.467 193.34 277.736 195.228C278.366 199.543 291.223 199.543 294.639 195.228C298.415 190.373 296.707 186.147 289.245 182.371C280.973 178.145 282.322 174.279 291.492 175.718C295.358 176.257 295.538 176.167 295.538 174.009C295.538 171.222 294.19 170.683 287.536 170.683C283.58 170.683 281.692 171.132 279.894 172.571Z" fill="black"/>
<path d="M303.809 172.121C300.573 174.369 299.134 178.235 299.134 184.349C299.134 190.733 300.303 193.52 303.809 196.127C306.597 198.195 313.519 199.094 318.015 197.925C320.532 197.296 321.162 196.666 321.162 194.868C321.162 192.8 320.982 192.71 315.138 192.98C310.013 193.25 308.934 193.07 307.316 191.452C303.54 187.676 304.708 186.866 313.43 186.866C318.195 186.866 321.791 186.507 322.061 185.877C322.42 185.338 322.42 183.09 322.061 180.753C321.611 177.786 320.622 175.808 318.464 173.65C315.857 171.043 314.958 170.683 310.642 170.683C307.765 170.683 305.068 171.222 303.809 172.121ZM315.048 178.685C316.576 181.832 315.857 182.371 310.283 182.371C306.327 182.371 305.428 182.101 305.428 180.843C305.428 176.077 312.89 174.459 315.048 178.685Z" fill="black"/>
<path d="M326.107 197.655H332.49L331.951 171.132L329.074 170.862L326.107 170.592V197.655Z" fill="black"/>
<path d="M336.896 197.655H342.291V177.785L345.348 176.526C351.461 173.919 353.08 176.526 353.08 189.203V197.655H358.474V186.506C358.474 176.616 358.294 175.178 356.586 173.02C355.058 171.132 353.979 170.682 350.742 170.682C348.494 170.682 345.797 171.132 344.718 171.671C343.28 172.48 342.74 172.48 342.471 171.671C342.291 171.132 340.942 170.682 339.504 170.682H336.896V197.655Z" fill="black"/>
<path d="M367.375 172.031C361.171 175.448 360.362 191.182 366.206 195.767C369.263 198.195 373.489 198.914 379.602 198.105C384.278 197.565 384.547 197.385 384.547 195.048V192.53L378.434 192.98C372.5 193.34 372.14 193.25 370.342 190.912C369.263 189.563 368.364 188.035 368.364 187.675C368.364 187.226 372.23 186.866 376.905 186.866H385.447V183C385.447 178.325 383.019 173.29 380.052 171.852C377.085 170.323 370.252 170.413 367.375 172.031ZM377.535 177.606C378.434 178.415 379.153 179.853 379.153 180.752C379.153 182.281 378.524 182.461 374.028 182.191C369.353 181.921 368.813 181.741 369.083 180.123C369.802 175.987 374.298 174.639 377.535 177.606Z" fill="black"/>
<path d="M206.528 182.819C206.528 184.797 206.888 185.067 209.675 185.067C212.462 185.067 212.822 184.797 212.822 182.819C212.822 180.841 212.462 180.571 209.675 180.571C206.888 180.571 206.528 180.841 206.528 182.819Z" fill="black"/>
<path d="M268.565 182.819C268.565 184.797 268.925 185.067 271.712 185.067C274.499 185.067 274.858 184.797 274.858 182.819C274.858 180.841 274.499 180.571 271.712 180.571C268.925 180.571 268.565 180.841 268.565 182.819Z" fill="black"/>
<path d="M758.117 185.966C754.341 190.102 757.218 196.755 762.792 196.755C768.366 196.755 771.244 190.911 767.917 186.146C766.119 183.539 760.455 183.359 758.117 185.966Z" fill="black"/>
<path d="M562.745 211.77L563.015 238.563L567.78 238.833L572.456 239.102V230.741C572.456 222.829 572.635 222.11 574.973 219.322L577.49 216.266L584.863 227.684L592.146 239.012H598.079C602.575 239.012 603.834 238.743 603.384 237.844C603.024 237.304 598.709 230.561 593.854 223.099C588.999 215.546 584.953 209.073 584.863 208.623C584.683 208.174 588.279 203.409 592.685 198.104C604.643 183.719 604.103 185.067 597.27 185.067H591.426L582.615 195.407C577.85 201.071 573.624 205.746 573.175 205.746C572.815 205.746 572.456 201.071 572.456 195.407V185.067H562.566L562.745 211.77Z" fill="black"/>
<path d="M646.181 239.102L650.946 238.833L655.622 238.563L655.891 226.245C656.161 214.198 656.161 213.928 658.499 212.13C660.746 210.242 665.511 209.612 667.4 210.961C669.827 212.579 670.456 215.996 670.456 227.234V239.012H679.447V225.256C679.447 209.792 678.638 206.915 673.244 203.319C669.647 200.891 663.893 200.621 659.038 202.599C657.33 203.319 655.711 203.948 655.532 203.948C655.352 203.948 655.172 199.722 655.172 194.508V185.067H646.181V239.102Z" fill="black"/>
<path d="M791.023 195.767C787.517 199.274 789.315 205.837 794.08 207.006C800.014 208.534 804.689 201.701 801.093 196.846C798.665 193.699 793.63 193.16 791.023 195.767Z" fill="black"/>
<path d="M615.162 202.51C611.836 203.948 607.52 208.804 607.52 211.141C607.52 212.4 608.419 212.939 611.206 213.389C614.533 213.928 615.162 213.748 616.871 211.77C619.298 208.804 622.265 207.994 625.592 209.343C628.289 210.512 629.997 214.198 628.559 215.547C628.109 215.996 622.805 217.615 616.781 219.233L605.722 222.2V226.156C605.722 231.73 607.7 235.956 611.206 237.754C615.162 239.732 622.445 239.732 626.221 237.754C629.008 236.315 629.368 236.315 630.357 237.664C631.076 238.743 632.425 239.103 634.942 238.833L638.539 238.563V224.627C638.539 208.714 637.729 206.106 631.616 202.959C627.66 200.981 619.298 200.712 615.162 202.51ZM629.098 225.796C629.098 228.044 628.559 229.033 626.491 230.292C621.726 233.079 614.623 231.64 615.792 228.044C616.061 227.235 625.951 223.189 628.469 222.919C628.828 222.829 629.098 224.178 629.098 225.796Z" fill="black"/>
<path d="M706.421 202.69C704.713 203.41 702.195 205.028 700.936 206.287L698.509 208.624L697.43 205.388C696.441 202.331 696.171 202.151 692.395 202.151H688.439V239.013H697.16L697.79 232.001C698.779 220.133 705.072 210.243 711.725 210.243C713.613 210.243 713.613 210.512 713.613 224.628V239.013H722.604V203.05L720.267 202.151C716.94 200.802 710.017 201.162 706.421 202.69Z" fill="black"/>
<path d="M146.291 206.197C145.392 207.276 145.392 207.546 146.561 207.546C147.28 207.546 148.359 206.916 148.989 206.197C149.888 205.118 149.888 204.848 148.719 204.848C148 204.848 146.921 205.478 146.291 206.197Z" fill="black"/>
<path d="M362.52 207.905C358.834 209.163 348.045 213.749 340.313 217.435C337.885 218.514 335.368 219.233 334.649 218.963C333.929 218.604 333.12 218.873 332.761 219.413C332.401 220.042 332.491 220.132 333.12 219.772C333.75 219.413 334.199 219.323 334.199 219.593C334.199 219.772 332.401 221.031 330.153 222.2C327.546 223.728 325.928 224.178 325.568 223.549C325.118 222.919 325.388 222.829 326.107 223.279C326.917 223.818 327.096 223.638 326.647 222.919C325.838 221.75 324.759 222.38 324.759 223.908C324.759 224.448 324.309 225.077 323.68 225.257C323.051 225.527 322.691 224.987 322.961 223.908C323.14 223.009 322.781 222.2 322.062 222.2C321.073 222.2 320.893 223.638 321.612 225.527C321.702 225.796 321.792 226.246 321.702 226.605C321.702 227.055 336.986 227.325 355.867 227.325H390.032L387.964 224.358C386.885 222.829 382.66 218.154 378.704 214.018C370.882 205.927 369.803 205.567 362.52 207.905Z" fill="black"/>
<path d="M531.997 209.342C530.918 210.421 530.199 212.309 530.199 214.108C530.199 221.21 540.089 223.098 542.786 216.625C545.483 210.062 536.942 204.397 531.997 209.342Z" fill="black"/>
<path d="M737.977 210.78C734.201 215.635 736.808 221.39 742.832 221.39C748.856 221.39 751.463 215.635 747.687 210.78C746.339 209.072 744.99 208.443 742.832 208.443C740.674 208.443 739.326 209.072 737.977 210.78Z" fill="black"/>
<path d="M90.5485 215.997C90.5485 223.549 91.4476 224.898 96.1228 224.448C99.899 224.088 99.9889 222.47 96.2127 222.11L93.2458 221.841V215.547C93.2458 210.602 92.976 209.343 91.8971 209.343C90.8182 209.343 90.5485 210.692 90.5485 215.997Z" fill="black"/>
<path d="M103.945 211.23C102.596 213.837 103.315 222.738 105.024 223.817C107.091 225.166 112.126 224.806 112.126 223.368C112.126 222.559 111.047 221.929 109.249 221.749C107.002 221.57 106.282 221.03 106.282 219.682C106.282 218.333 107.002 217.793 109.249 217.614C113.205 217.254 112.935 215.636 108.89 215.636C106.102 215.636 105.743 215.366 106.013 213.568C106.192 212.039 107.002 211.5 109.249 211.32C113.385 210.87 112.846 209.342 108.53 209.342C105.833 209.342 104.754 209.792 103.945 211.23Z" fill="black"/>
<path d="M126.063 224.178L129.03 224.448C130.738 224.628 132.986 224.088 134.245 223.279C136.043 222.11 136.403 221.211 136.403 216.986C136.403 210.962 134.964 209.343 129.57 209.343H125.524L126.063 224.178ZM132.626 211.861C133.256 212.31 133.975 214.109 134.245 215.817C134.694 218.334 134.425 219.413 132.896 220.942C129.839 223.999 128.76 222.92 128.491 216.716C128.221 211.861 128.401 211.142 129.839 211.142C130.738 211.142 131.997 211.501 132.626 211.861Z" fill="black"/>
<path d="M143.324 209.972C142.964 210.242 142.694 213.478 142.694 217.075C142.694 223.278 142.784 223.728 144.852 224.267C147.639 224.897 150.786 224.447 151.056 223.278C151.146 222.739 149.887 222.289 148.359 222.109C145.931 221.84 145.392 221.48 145.392 219.592C145.392 217.794 145.841 217.434 148.089 217.434C149.617 217.434 150.786 216.985 150.786 216.535C150.786 215.996 149.617 215.636 148.089 215.636C145.841 215.636 145.392 215.276 145.392 213.388C145.392 211.41 145.751 211.141 148.538 211.141C150.247 211.141 151.685 210.691 151.685 210.242C151.685 209.253 144.223 208.983 143.324 209.972Z" fill="black"/>
<path d="M157.08 216.985C157.08 223.189 157.35 224.628 158.429 224.628C159.328 224.628 159.777 223.639 159.777 221.481C159.777 218.604 160.047 218.334 162.295 218.334C165.442 218.334 166.97 216.895 166.97 213.839C166.97 210.512 165.352 209.343 160.946 209.343H157.08V216.985ZM164.273 212.49C165.711 214.198 164.003 216.536 161.486 216.536C160.227 216.536 159.777 215.906 159.777 213.839C159.777 211.771 160.227 211.141 161.486 211.141C162.385 211.141 163.643 211.771 164.273 212.49Z" fill="black"/>
<path d="M172.904 214.288C170.386 222.829 170.207 224.628 171.735 224.628C172.544 224.628 173.264 223.729 173.443 222.56C173.623 221.031 174.342 220.582 176.41 220.582C178.478 220.582 179.197 221.031 179.377 222.56C179.557 223.729 180.276 224.628 181.086 224.628C182.614 224.628 182.344 222.02 179.917 213.929C178.838 210.062 178.208 209.343 176.41 209.343C174.612 209.343 174.073 210.062 172.904 214.288ZM177.669 216.266C177.759 217.525 177.219 218.334 176.41 218.334C174.972 218.334 174.702 216.536 175.691 213.029C176.23 210.962 176.32 210.962 176.95 212.58C177.309 213.479 177.669 215.187 177.669 216.266Z" fill="black"/>
<path d="M187.648 216.985C187.648 223.189 187.918 224.627 188.997 224.627C189.896 224.627 190.346 223.638 190.346 221.481C190.346 219.772 190.795 218.334 191.245 218.334C191.784 218.334 193.043 219.772 194.032 221.481C196.549 225.706 199.157 225.886 196.999 221.75C195.83 219.592 195.74 218.514 196.549 217.255C197.808 215.187 197.808 211.77 196.459 210.422C195.83 209.792 193.672 209.343 191.514 209.343H187.648V216.985ZM194.392 213.838C194.392 215.457 193.852 216.176 192.414 216.356C190.615 216.625 190.346 216.266 190.346 213.838C190.346 211.411 190.615 211.051 192.414 211.321C193.852 211.501 194.392 212.22 194.392 213.838Z" fill="black"/>
<path d="M202.034 210.242C202.034 210.692 202.843 211.141 203.832 211.141C205.451 211.141 205.631 211.771 205.631 217.884C205.631 223.189 205.9 224.628 206.979 224.628C207.968 224.628 208.328 223.099 208.508 218.064C208.777 212.13 208.957 211.591 210.845 211.321C214.981 210.692 212.643 209.343 207.429 209.343C204.462 209.343 202.034 209.703 202.034 210.242Z" fill="black"/>
<path d="M217.948 209.972C217.588 210.242 217.318 213.478 217.318 217.075C217.318 223.278 217.408 223.728 219.476 224.267C222.263 224.897 225.41 224.447 225.68 223.278C225.77 222.739 224.511 222.289 222.983 222.109C220.555 221.84 220.016 221.48 220.016 219.592C220.016 217.794 220.465 217.434 222.713 217.434C224.241 217.434 225.41 216.985 225.41 216.535C225.41 215.996 224.241 215.636 222.713 215.636C220.465 215.636 220.016 215.276 220.016 213.388C220.016 211.41 220.375 211.141 223.162 211.141C224.871 211.141 226.309 210.691 226.309 210.242C226.309 209.253 218.847 208.983 217.948 209.972Z" fill="black"/>
<path d="M231.704 216.985C231.704 223.189 231.974 224.628 233.053 224.628C234.132 224.628 234.401 223.459 234.491 219.413C234.491 215.097 234.671 214.558 235.48 216.266C236.02 217.435 237.188 218.334 237.998 218.334C238.897 218.334 240.245 217.435 240.965 216.266C242.313 214.378 242.403 214.468 242.403 219.413C242.493 222.29 242.943 224.628 243.392 224.628C243.932 224.628 244.291 221.481 244.291 216.985C244.291 210.782 244.022 209.343 242.943 209.343C242.133 209.343 240.875 210.782 240.066 212.49C239.256 214.198 238.267 215.637 237.998 215.637C237.728 215.637 236.739 214.198 235.93 212.49C235.121 210.782 233.862 209.343 233.053 209.343C231.974 209.343 231.704 210.782 231.704 216.985Z" fill="black"/>
<path d="M251.665 210.421C250.226 211.86 250.226 222.109 251.665 223.548C253.283 225.166 259.576 224.986 259.576 223.278C259.576 222.379 258.587 221.93 256.43 221.93C253.642 221.93 253.283 221.66 253.283 219.682C253.283 217.704 253.642 217.434 256.43 217.434C258.138 217.434 259.576 216.985 259.576 216.535C259.576 215.996 258.138 215.636 256.34 215.636C253.553 215.636 253.193 215.366 253.463 213.568C253.642 212.04 254.452 211.5 256.699 211.32C258.228 211.141 259.576 210.691 259.576 210.152C259.576 208.983 252.923 209.163 251.665 210.421Z" fill="black"/>
<path d="M264.97 216.985C264.97 223.189 265.24 224.628 266.319 224.628C267.398 224.628 267.668 223.369 267.758 218.963V213.389L270.365 218.963C272.343 223.189 273.422 224.628 274.86 224.628C276.569 224.628 276.658 224.088 276.658 216.985C276.658 210.782 276.389 209.343 275.31 209.343C274.231 209.343 273.961 210.602 273.961 214.918V220.582L271.264 214.918C269.286 210.782 268.207 209.343 266.769 209.343C265.06 209.343 264.97 209.883 264.97 216.985Z" fill="black"/>
<path d="M281.154 210.242C281.154 210.692 281.963 211.141 282.952 211.141C284.57 211.141 284.75 211.771 284.75 217.884C284.75 223.189 285.02 224.628 286.099 224.628C287.088 224.628 287.447 223.099 287.627 218.064C287.897 212.13 288.077 211.591 289.965 211.321C294.101 210.692 291.763 209.343 286.548 209.343C283.581 209.343 281.154 209.703 281.154 210.242Z" fill="black"/>
<path d="M321.523 213.928C321.523 214.107 321.343 214.917 321.163 215.726C321.073 216.535 321.433 217.164 322.062 217.164C322.691 217.164 323.141 216.625 323.051 215.995C322.871 214.827 321.702 213.208 321.523 213.928Z" fill="black"/>
<path d="M313.161 215.547C312.801 215.997 312.981 216.626 313.43 216.896C313.88 217.255 314.509 217.075 314.779 216.626C315.139 216.176 314.959 215.547 314.509 215.277C314.06 214.918 313.43 215.097 313.161 215.547Z" fill="black"/>
<path d="M317.206 216.176C317.745 216.805 318.644 217.165 319.094 216.895C320.083 216.266 319.364 215.366 317.475 215.097C316.397 214.917 316.307 215.187 317.206 216.176Z" fill="black"/>
<path d="M324.849 215.547C324.49 215.997 324.669 216.626 325.119 216.896C325.568 217.255 326.198 217.075 326.468 216.626C326.827 216.176 326.647 215.547 326.198 215.277C325.748 214.918 325.119 215.097 324.849 215.547Z" fill="black"/>
<path d="M329.344 215.547C328.984 215.997 329.164 216.626 329.614 216.896C330.063 217.255 330.693 217.075 330.962 216.626C331.322 216.176 331.142 215.547 330.693 215.277C330.243 214.918 329.614 215.097 329.344 215.547Z" fill="black"/>
<path d="M332.851 216.626C332.581 216.986 333.03 217.166 333.75 217.076C335.638 216.806 336.267 215.907 334.649 215.907C333.84 215.907 333.03 216.266 332.851 216.626Z" fill="black"/>
<path d="M312.89 219.682C312.89 220.221 313.429 220.761 313.969 220.761C314.508 220.761 315.048 220.221 315.048 219.682C315.048 219.142 314.508 218.603 313.969 218.603C313.429 218.603 312.89 219.142 312.89 219.682Z" fill="black"/>
<path d="M316.576 219.413C316.307 219.773 316.217 220.132 316.396 220.222C318.644 220.762 319.543 220.672 319.543 219.773C319.543 218.514 317.296 218.244 316.576 219.413Z" fill="black"/>
<path d="M321.252 219.143C320.892 219.592 321.072 220.221 321.522 220.491C321.971 220.851 322.6 220.671 322.87 220.221C323.23 219.772 323.05 219.143 322.6 218.873C322.151 218.513 321.522 218.693 321.252 219.143Z" fill="black"/>
<path d="M324.579 219.681C324.579 220.22 326.107 220.58 327.905 220.58C329.703 220.58 331.232 220.22 331.232 219.681C331.232 219.142 329.703 218.782 327.905 218.782C326.107 218.782 324.579 219.142 324.579 219.681Z" fill="black"/>
<path d="M309.384 223.458C309.564 224.357 309.924 224.986 310.283 224.896C311.632 224.627 311.722 223.907 310.463 222.918C309.384 222.019 309.204 222.109 309.384 223.458Z" fill="black"/>
<path d="M313.43 222.021C313.43 222.201 313.251 223.01 313.071 223.819C312.981 224.628 313.341 225.257 313.97 225.257C314.599 225.257 315.049 224.718 314.959 224.089C314.779 222.92 313.61 221.301 313.43 222.021Z" fill="black"/>
<path d="M317.206 223.188C316.577 223.907 316.487 224.716 316.937 224.986C317.476 225.256 318.285 224.896 318.825 224.267C319.454 223.548 319.544 222.738 319.094 222.469C318.555 222.199 317.746 222.559 317.206 223.188Z" fill="black"/>
<path d="M612.915 249.711C611.746 251.958 611.746 252.498 613.005 252.498C614.084 252.498 616.421 249.89 616.511 248.632C616.511 247.283 613.814 248.092 612.915 249.711Z" fill="black"/>
<path d="M563.465 258.343C563.465 265.356 563.735 266.885 564.814 266.885C565.893 266.885 566.162 265.626 566.162 261.22V255.646L568.05 258.523C569.129 260.141 570.298 261.49 570.658 261.49C571.107 261.49 572.456 260.141 573.715 258.523L576.052 255.646V261.22C576.052 265.626 576.322 266.885 577.401 266.885C578.48 266.885 578.749 265.356 578.749 258.343C578.749 250.791 578.57 249.802 577.221 249.802C576.322 249.802 574.524 251.51 573.265 253.578L570.838 257.264L568.5 253.488C564.634 247.374 563.465 248.453 563.465 258.343Z" fill="black"/>
<path d="M657.958 255.736C656.879 257.084 656.07 258.793 656.07 259.692C656.07 262.749 659.577 265.985 662.903 265.985C668.567 265.985 671.444 260.141 668.118 255.376C666.05 252.409 660.386 252.589 657.958 255.736Z" fill="black"/>
<path d="M597.271 255.466C595.024 257.084 595.743 259.871 598.8 261.31C602.126 262.928 601.947 264.457 598.44 263.737C596.372 263.288 595.743 263.378 596.013 264.277C596.642 266.165 598.98 267.154 601.407 266.614C605.723 265.536 605.543 261.49 601.138 259.691C597.721 258.253 597.721 256.725 601.227 257.444C604.015 258.073 604.734 257.264 602.846 255.376C601.407 253.937 599.249 254.027 597.271 255.466Z" fill="black"/>
<path d="M608.419 256.096C604.733 259.782 607.34 266.885 612.285 266.885C615.252 266.885 618.129 264.637 616.87 263.288C616.151 262.569 615.611 262.479 615.252 263.198C614.353 264.637 610.487 264.367 609.947 262.929C609.498 261.85 610.397 261.49 613.633 261.31C618.489 261.04 619.567 259.152 616.6 256.185C614.173 253.758 610.756 253.758 608.419 256.096ZM614.712 258.343C614.712 259.782 610.667 260.231 609.857 258.883C609.138 257.804 610.217 256.995 612.644 256.995C613.903 256.995 614.712 257.534 614.712 258.343Z" fill="black"/>
<path d="M621.906 256.095C616.332 261.669 623.974 270.211 629.998 265.266C631.796 263.827 631.886 263.468 630.627 263.018C629.818 262.748 628.919 262.838 628.649 263.288C627.84 264.636 624.963 264.367 623.704 262.928C622.805 261.759 623.344 261.58 627.031 261.31C631.976 261.04 633.054 259.152 630.088 256.185C627.66 253.758 624.243 253.758 621.906 256.095ZM628.199 258.343C628.199 259.152 627.39 259.692 625.952 259.692C624.513 259.692 623.704 259.152 623.704 258.343C623.704 257.534 624.513 256.994 625.952 256.994C627.39 256.994 628.199 257.534 628.199 258.343Z" fill="black"/>
<path d="M582.347 259.421C582.347 265.445 583.246 266.434 588.64 266.524L593.136 266.614V260.86C593.136 256.544 592.866 255.196 591.877 255.196C590.978 255.196 590.438 256.364 590.258 258.882C590.079 261.309 589.449 263.018 588.37 263.647C586.303 264.996 585.044 263.108 585.044 258.522C585.044 256.185 584.684 255.196 583.695 255.196C582.706 255.196 582.347 256.275 582.347 259.421Z" fill="black"/>
<path d="M582.885 273.357C582.075 274.436 581.626 275.515 581.896 275.694C582.615 276.504 584.952 275.065 585.941 273.267C587.29 270.57 584.683 270.749 582.885 273.357Z" fill="black"/>
<path d="M570.657 275.785C570.657 278.212 570.388 278.482 567.78 278.392C564.004 278.302 561.307 281.449 562.026 285.315C562.746 289.001 564.813 290.26 569.489 290.08L573.355 289.9V281.539C573.355 274.706 573.085 273.177 572.006 273.177C571.107 273.177 570.657 274.076 570.657 275.785ZM569.579 281.179C570.298 281.629 570.657 283.067 570.478 284.506C570.298 286.574 569.758 287.113 567.96 287.113C566.342 287.113 565.623 286.574 565.443 285.045C565.173 283.067 566.612 280.37 567.87 280.37C568.14 280.37 568.949 280.73 569.579 281.179Z" fill="black"/>
<path d="M719.906 281.719C719.906 288.731 720.175 290.26 721.254 290.26C722.333 290.26 722.603 288.731 722.603 281.719C722.603 274.706 722.333 273.177 721.254 273.177C720.175 273.177 719.906 274.706 719.906 281.719Z" fill="black"/>
<path d="M628.469 276.504C628.11 277.404 627.21 278.572 626.491 279.202C625.232 280.101 625.232 280.281 626.671 280.82C627.75 281.27 628.199 282.438 628.199 285.315C628.199 288.013 628.649 289.361 629.638 289.721C632.066 290.62 633.594 290.35 633.594 288.912C633.594 288.193 632.965 287.563 632.245 287.563C631.346 287.563 630.897 286.664 630.897 284.506C630.897 282.618 631.436 281.27 632.245 280.91C632.965 280.64 633.594 280.011 633.594 279.471C633.594 279.022 632.965 278.572 632.245 278.572C631.526 278.572 630.897 277.763 630.897 276.774C630.897 274.526 629.278 274.437 628.469 276.504Z" fill="black"/>
<path d="M699.227 276.324C699.227 277.134 698.598 277.943 697.879 278.213C696.17 278.932 696.08 281.269 697.789 281.269C698.778 281.269 699.227 282.528 699.407 285.495C699.677 289.451 699.857 289.811 702.194 290.08C703.902 290.26 704.622 289.991 704.622 289.002C704.622 288.192 703.992 287.563 703.273 287.563C702.374 287.563 701.924 286.574 701.924 284.416C701.924 282.708 702.374 281.269 702.824 281.269C703.363 281.269 703.723 280.64 703.723 279.921C703.723 279.202 703.363 278.572 702.824 278.572C702.374 278.572 701.924 277.763 701.924 276.774C701.924 275.785 701.295 274.976 700.576 274.976C699.857 274.976 699.227 275.605 699.227 276.324Z" fill="black"/>
<path d="M579.65 278.843C578.481 279.472 577.042 281.09 576.593 282.439C574.885 287.294 581.088 291.969 585.943 289.362C588.82 287.833 588.011 286.755 584.055 286.934C578.481 287.204 578.391 285.046 583.875 284.687C587.651 284.417 588.191 284.147 587.921 282.619C587.651 280.641 584.595 277.674 582.886 277.674C582.347 277.674 580.908 278.213 579.65 278.843ZM584.864 281.899C585.044 282.709 584.235 283.068 582.437 283.068C579.74 283.068 578.93 282.259 580.279 280.91C581.268 280.011 584.415 280.641 584.864 281.899Z" fill="black"/>
<path d="M593.405 278.302L590.438 278.662V286.754C590.438 294.126 590.528 294.756 592.236 294.756C593.674 294.756 594.034 294.126 594.034 292.058C594.034 290.08 594.394 289.541 595.383 289.901C599.698 291.609 603.924 286.484 602.126 281.629C601.407 279.921 597.271 277.134 596.462 277.853C596.372 277.853 594.933 278.123 593.405 278.302ZM598.53 281.629C599.069 282.348 599.429 283.877 599.249 285.046C599.069 286.574 598.35 287.114 596.731 287.114C594.933 287.114 594.394 286.574 594.214 284.506C593.764 280.91 596.462 279.202 598.53 281.629Z" fill="black"/>
<path d="M606.532 279.382C603.925 281.539 604.914 282.888 607.88 281.36C610.038 280.191 612.016 280.64 612.016 282.259C612.016 282.708 611.207 283.068 610.128 283.068C607.071 283.068 604.824 284.776 604.824 287.114C604.824 289.541 606.262 290.171 611.387 290.081H614.714V285.316C614.714 281.36 614.354 280.191 612.736 279.112C610.128 277.224 609.049 277.314 606.532 279.382ZM612.016 286.125C612.016 287.743 609.319 288.822 608.15 287.653C607.701 287.204 607.611 286.395 607.88 285.855C608.78 284.417 612.016 284.686 612.016 286.125Z" fill="black"/>
<path d="M622.895 278.482C622.266 278.931 620.917 279.021 620.018 278.842C618.49 278.392 618.31 278.931 618.31 284.326C618.31 289.001 618.58 290.26 619.659 290.26C620.648 290.26 621.007 289.271 621.007 286.754C621.007 284.146 621.547 282.798 622.895 281.809C624.963 280.37 624.963 277.223 622.895 278.482Z" fill="black"/>
<path d="M638.539 278.751C637.55 279.291 636.471 280.19 636.111 280.729C634.853 282.618 635.392 287.293 637.011 288.731C639.258 290.799 643.754 290.619 645.732 288.462C647.35 286.663 647.35 286.663 643.034 286.843C640.247 287.023 638.629 286.753 638.359 285.944C638.089 285.225 639.168 284.865 642.045 284.865C644.203 284.865 646.361 284.416 646.631 283.966C647.62 282.348 646.271 279.74 643.844 278.751C641.146 277.493 640.787 277.493 638.539 278.751ZM643.304 281.898C643.484 282.707 642.675 283.067 640.787 283.067C638.269 283.067 638 282.887 638.989 281.718C640.337 280.1 642.675 280.28 643.304 281.898Z" fill="black"/>
<path d="M652.745 278.392L649.778 278.662V284.506C649.778 289.001 650.047 290.26 651.126 290.26C652.115 290.26 652.475 289.271 652.475 286.394C652.475 282.258 653.734 280.19 655.712 280.999C656.521 281.269 656.97 282.977 656.97 285.854C656.97 289.181 657.33 290.26 658.319 290.26C659.308 290.26 659.667 289.271 659.667 286.394C659.667 282.258 660.926 280.19 662.904 280.999C663.713 281.269 664.163 282.977 664.163 285.854C664.163 289.181 664.523 290.26 665.512 290.26C666.501 290.26 666.86 289.181 666.86 285.495C666.86 278.931 665.152 277.043 660.746 278.662C659.578 279.111 657.959 279.201 657.15 278.752C656.341 278.392 654.273 278.212 652.745 278.392Z" fill="black"/>
<path d="M671.984 279.471C667.399 283.067 669.917 290.26 675.761 290.26C678.997 290.26 682.054 287.743 680.166 286.574C679.537 286.124 678.638 286.214 678.188 286.664C676.839 288.012 674.412 287.742 673.153 286.214C672.164 285.045 672.614 284.865 676.66 284.865C680.526 284.865 681.245 284.596 681.245 283.247C681.245 278.662 675.761 276.504 671.984 279.471ZM678.368 281.898C678.548 282.708 677.739 283.067 675.94 283.067C673.243 283.067 672.434 282.258 673.783 280.909C674.772 280.01 677.918 280.64 678.368 281.898Z" fill="black"/>
<path d="M688.439 278.572C687.899 278.931 686.551 279.021 685.652 278.842C684.123 278.392 683.943 278.931 683.943 284.326C683.943 289.001 684.213 290.26 685.292 290.26C686.281 290.26 686.641 289.181 686.641 286.214C686.641 283.247 687.09 281.988 688.259 281.359C690.686 280.01 692.035 281.809 692.035 286.394C692.035 289.271 692.395 290.26 693.384 290.26C695.092 290.26 695.272 280.999 693.653 279.741C691.765 278.302 689.697 277.763 688.439 278.572Z" fill="black"/>
<path d="M708.129 279.382C705.521 281.539 706.51 282.888 709.477 281.36C711.635 280.191 713.613 280.64 713.613 282.259C713.613 282.708 712.804 283.068 711.725 283.068C708.668 283.068 706.42 284.776 706.42 287.114C706.42 289.541 707.859 290.171 712.984 290.081H716.31V285.316C716.31 281.36 715.951 280.191 714.332 279.112C711.725 277.224 710.646 277.314 708.129 279.382ZM713.613 286.125C713.613 287.743 710.916 288.822 709.747 287.653C709.297 287.204 709.207 286.395 709.477 285.855C710.376 284.417 713.613 284.686 713.613 286.125Z" fill="black"/>
</svg>
